<svg viewBox="0 -0.363 170.223 149.696" xmlns="http://www.w3.org/2000/svg"><defs><linearGradient id="a" x1=".501" x2=".501" y1="1.022" y2="-.021"><stop offset="0" stop-color="#fecc01" class="stop-color-3f3f40"></stop><stop offset=".03" stop-color="#fecc01" class="stop-color-444544"></stop><stop offset=".91" stop-color="#fecc01" class="stop-color-98999b"></stop><stop offset=".94" stop-color="#fecc01" class="stop-color-cfd1d2"></stop><stop offset="1" stop-color="#fecc01" class="stop-color-a6a8a9"></stop></linearGradient></defs><path d="M7.85-.363C3.53-.363 0 3.175 0 7.504v133.96c0 4.328 3.53 7.869 7.85 7.869h154.782c3.628 0 6.7-2.498 7.591-5.861V5.496c-.891-3.363-3.963-5.859-7.591-5.859H7.851z" fill="url(#a)" class="fillurl(-a)"></path><path d="M10.67 138.42h149.143V13.89H10.669v124.53z" fill="#000000" class="fill-000000"></path><path d="M12.012 12.544V137.07H161.16v2.693H9.324V12.544h2.688z" fill="#fecc01" class="fill-58595b"></path><path d="M158.47 139.764V15.241H9.325v-2.697h151.834v127.22h-2.689z" fill="#fecc01" class="fill-c0c3c5"></path><path d="M12.012 123.41 158.47 48.689V15.242H12.012V123.41z" fill="#000002" class="fill-000002"></path><path d="M39.196 64.481V54.216l44.496 19.619v8.096l-44.496 19.73V91.626l33.115-13.762-33.115-13.383zM130.027 87.596H92.253v-7.19h37.774v7.19z" fill="#fecc01" class="fill-ffffff"></path></svg>